<?xml version="1.0" encoding="UTF-8" standalone="no"?>
<svg width="21px" height="12px" viewBox="0 0 21 12" version="1.1" xmlns="http://www.w3.org/2000/svg" xmlns:xlink="http://www.w3.org/1999/xlink">
    <!-- Generator: sketchtool 41.2 (35397) - http://www.bohemiancoding.com/sketch -->
    <title>1FAF95CA-A179-4A46-934C-A3BB6FD188FD</title>
    <desc>Created with sketchtool.</desc>
    <defs></defs>
    <g id="Symbols" stroke="none" stroke-width="1" fill="none" fill-rule="evenodd">
        <g id="Left-Nav-Open---iPad" transform="translate(-152.000000, -25.000000)" fill="#212121">
            <path d="M168.468511,25 L167.268334,26.3259119 L170.599714,30.0064184 L166.046483,30.0064184 L166.046483,31.9935816 L170.599714,31.9935816 L167.268334,35.6740881 L168.468511,37 L172.999932,31.9935816 L173,30.0064184 L168.468511,25 Z M152,27.0256388 L165.741071,27.0256388 L165.741071,25.038406 L152,25.038406 L152,27.0256388 Z M152.038168,31.9935816 L164.405194,31.9935816 L164.405194,30.0063488 L152.038168,30.0063488 L152.038168,31.9935816 Z M152.038168,36.961594 L165.741071,36.961594 L165.741071,34.9744308 L152.038168,34.9744308 L152.038168,36.961594 Z" id="icon_collapse" transform="translate(162.500000, 31.000000) scale(-1, 1) translate(-162.500000, -31.000000) "></path>
        </g>
    </g>
</svg>