<?xml version="1.0" encoding="UTF-8" standalone="no"?>
<svg width="79px" height="45px" viewBox="0 0 79 45" version="1.1" xmlns="http://www.w3.org/2000/svg" xmlns:xlink="http://www.w3.org/1999/xlink">
    <!-- Generator: sketchtool 41.2 (35397) - http://www.bohemiancoding.com/sketch -->
    <title>434ECF6E-B8BA-450E-8DC4-8F37E80D3814</title>
    <desc>Created with sketchtool.</desc>
    <defs>
        <polygon id="path-1" points="0.000207468543 44.3453571 78.7661238 44.3453571 78.7661238 0.000357142857 0.000207468543 0.000357142857"></polygon>
    </defs>
    <g id="Symbols" stroke="none" stroke-width="1" fill="none" fill-rule="evenodd">
        <g id="Header" transform="translate(-19.000000, -8.000000)">
            <g id="Logo">
                <g transform="translate(19.228792, 8.000000)">
                    <mask id="mask-2" fill="white">
                        <use xlink:href="#path-1"></use>
                    </mask>
                    <g id="Clip-2"></g>
                    <path d="M54.365956,25.8876429 C54.8223868,25.5526429 55.3147788,25.1590714 55.775359,24.7840714 C59.3203048,21.8540714 62.0284608,18.6433571 62.5637297,16.8676429 C62.5830934,16.8097857 62.6308112,16.6469286 62.6308112,16.5155 C62.6308112,16.3312143 62.5471322,16.2033571 62.383232,16.2033571 C60.7580618,16.2033571 55.5333123,21.5726429 54.2705205,25.9197857 L54.2705205,25.9376429 L54.365956,25.8876429 Z M41.2746909,25.2705 C46.2110591,21.4183571 51.395698,15.8105 51.9489475,13.5083571 C51.9676196,13.4326429 51.9849087,13.3590714 51.9821424,13.2883571 C51.9745353,13.1376429 51.8956972,13.0026429 51.7096671,13.0026429 C50.147429,13.0026429 42.9123093,19.8933571 41.2746909,25.2705 L41.2746909,25.2705 Z M10.9642284,28.6562143 C9.65994282,27.7226429 7.64473171,26.9055 5.84528788,26.9055 C4.09909431,26.9055 2.98153043,27.6126429 2.98153043,28.5069286 C2.98153043,29.5333571 4.33699158,29.9847857 5.85427819,29.9847857 C7.69452416,29.9847857 9.36464593,29.4705 10.9642284,28.6562143 L10.9642284,28.6562143 Z M26.0866105,16.5726429 C29.6253323,15.3997857 32.9828648,12.9505 35.485627,10.3919286 C37.800976,8.02407143 39.6536701,5.21192857 39.6536701,3.82121429 C39.6536701,3.50264286 39.4330618,3.31192857 39.1543624,3.31192857 C38.0838248,3.31192857 36.0499415,4.78121429 33.3155061,7.60907143 C31.1848041,9.81692857 28.7034804,12.8255 26.0866105,16.5726429 L26.0866105,16.5726429 Z M78.7663313,25.4097857 C75.7283003,28.5333571 66.2559782,37.1197857 63.7483751,44.3455 L60.6446457,43.5205 C61.6584753,40.5269286 64.7144869,35.8726429 68.1204288,32.2805 C67.395672,32.5640714 66.639795,32.6683571 66.0339868,32.6683571 C65.1135181,32.6683571 64.3963685,32.3819286 63.9676002,31.8426429 C63.6577805,31.4555 63.5007959,30.9483571 63.5007959,30.3469286 C63.5007959,30.2169286 63.5097862,30.0840714 63.5284584,29.9376429 C60.5374536,31.8183571 58.1308185,32.6683571 55.775359,32.6683571 C53.9427202,32.6683571 52.3977711,31.8426429 51.6868455,30.3962143 C48.7172791,31.9169286 45.8715023,32.6683571 43.4890719,32.6683571 C41.2746909,32.6683571 39.4883868,31.7626429 38.6702692,30.1105 C35.6681994,31.8540714 33.1156447,32.6683571 31.0831446,32.6683571 C29.9137135,32.6683571 28.9870207,32.3319286 28.3902029,31.7005 C27.9517527,31.2340714 27.720771,30.6047857 27.6896508,29.8776429 C25.7636511,31.1869286 22.954527,32.6683571 20.0693312,32.6683571 C17.1232779,32.6683571 15.144028,31.6226429 13.6108354,30.5876429 C11.1627066,31.9862143 8.47045651,32.6683571 5.62329654,32.6683571 C3.47115619,32.6683571 0.000207468543,31.7419286 0.000207468543,28.5562143 C0.000207468543,25.9819286 2.59909675,24.2412143 6.07557796,24.2412143 C9.0320047,24.2412143 11.8798562,25.5283571 13.6682351,26.8633571 C15.3646362,25.4690714 17.1447163,23.5162143 19.2442979,20.7590714 C18.7830262,20.7840714 18.3328195,20.7969286 17.8888368,20.7969286 C13.8667133,20.7969286 10.5077976,19.5733571 8.67585037,17.4297857 C7.68484229,16.2719286 7.21803807,14.9133571 7.21803807,13.4519286 C7.21803807,7.67264286 14.2816504,3.1905 20.4621383,2.53192857 C20.8722344,3.48764286 21.2373791,4.22407143 21.6135887,5.10192857 C15.5070979,5.83335714 10.4206608,9.56692857 10.4206608,13.2140714 C10.4206608,15.6112143 13.0319982,18.0190714 18.5693336,18.0190714 C19.5181564,18.0190714 20.4718202,17.9262143 21.4102695,17.7912143 C26.2982284,10.8226429 33.790609,-0.000214285714 40.2359651,-0.000214285714 C42.1432926,-0.000214285714 43.1398331,1.19621429 43.1398331,2.79978571 C43.1398331,6.0955 40.397099,9.64192857 38.6107948,11.4933571 C35.8002877,14.4083571 30.7207662,18.7447857 23.625342,20.1819286 C20.8639357,24.1462143 18.5949214,26.7776429 16.3259071,28.6769286 C17.7028067,29.4440714 18.9904948,29.9126429 20.5292198,29.9126429 C24.3473325,29.9126429 28.0520291,26.3012143 30.9469069,23.2412143 L33.3065158,24.9612143 L33.2020899,25.0883571 C31.922009,26.6033571 30.7422046,28.2055 30.7422046,29.1005 C30.7422046,29.7833571 31.2989118,29.9183571 31.7781642,29.9183571 C33.2422005,29.9183571 35.4946173,28.9419286 38.1488316,27.2555 C38.4420538,20.4605 47.3880973,10.1055 52.8196238,10.1055 C54.3521248,10.1055 55.2345576,10.8926429 55.2345576,12.2769286 C55.2345576,15.6705 49.5637508,22.9505 41.3161846,28.5183571 C41.7442614,29.4705 42.7262792,29.9269286 44.3922516,29.9269286 C45.6944625,29.9269286 48.2373352,29.3283571 51.2629182,27.6955 C51.6142316,24.1862143 53.5388481,20.4205 55.9779866,17.7355 C58.4281901,15.0469286 61.1723073,13.2976429 63.5450559,13.2976429 C65.0090922,13.2976429 65.8735445,14.1326429 65.8735445,15.4376429 C65.8735445,18.3976429 62.5471322,23.4597857 54.5298561,28.7590714 C54.8839358,29.4705 55.574806,29.9183571 56.6439606,29.9183571 C59.031232,29.9183571 63.2373109,27.2869286 66.5153139,24.0497857 L68.866624,25.9376429 C67.8624763,27.1969286 66.8458804,28.5819286 66.8790754,29.3769286 C66.8873741,29.6340714 67.0561152,29.8069286 67.4516885,29.8069286 C69.8659308,29.8069286 73.6681377,26.5155 76.519447,23.6090714 L78.7663313,25.4097857 Z M35.0527093,18.6183571 C36.1190977,18.6183571 36.9800921,19.5133571 36.9800921,20.6119286 C36.9800921,21.7140714 36.1190977,22.6083571 35.0527093,22.6083571 C33.9828632,22.6083571 33.1191025,21.7140714 33.1191025,20.6119286 C33.1191025,19.5133571 33.9828632,18.6183571 35.0527093,18.6183571 L35.0527093,18.6183571 Z" id="Fill-1" fill="#FFFFFF" mask="url(#mask-2)"></path>
                </g>
            </g>
        </g>
    </g>
</svg>