<?xml version="1.0" encoding="UTF-8" standalone="no"?>
<svg width="10px" height="10px" viewBox="0 0 10 10" version="1.1" xmlns="http://www.w3.org/2000/svg" xmlns:xlink="http://www.w3.org/1999/xlink">
    <!-- Generator: sketchtool 41.2 (35397) - http://www.bohemiancoding.com/sketch -->
    <title>3A61A1BA-F3CD-4BAB-97FC-66056B3778D6</title>
    <desc>Created with sketchtool.</desc>
    <defs></defs>
    <g id="Symbols" stroke="none" stroke-width="1" fill="none" fill-rule="evenodd">
        <g id="External-Link" transform="translate(-115.000000, -11.000000)" fill="#757575">
            <g transform="translate(0.000000, 1.000000)" id="open-in-new">
                <g transform="translate(115.000000, 10.000000)">
                    <path d="M6.11111111,0 L6.11111111,1.11111111 L8.10555556,1.11111111 L2.64444444,6.57222222 L3.42777778,7.35555556 L8.88888889,1.89444444 L8.88888889,3.88888889 L10,3.88888889 L10,0 L6.11111111,0 Z M8.88888889,8.88888889 L1.11111111,8.88888889 L1.11111111,1.11111111 L5,1.11111111 L5,0 L1.11111111,0 C0.494444444,0 0,0.5 0,1.11111111 L0,8.88888889 C0,9.50253861 0.497461389,10 1.11111111,10 L8.88888889,10 C9.50253861,10 10,9.50253861 10,8.88888889 L10,5 L8.88888889,5 L8.88888889,8.88888889 Z" id="Shape"></path>
                </g>
            </g>
        </g>
    </g>
</svg>